<?xml version="1.0" encoding="UTF-8" standalone="no"?>
<!-- Created with Inkscape (http://www.inkscape.org/) -->

<svg
   xmlns:dc="http://purl.org/dc/elements/1.1/"
   xmlns:cc="http://creativecommons.org/ns#"
   xmlns:rdf="http://www.w3.org/1999/02/22-rdf-syntax-ns#"
   xmlns:svg="http://www.w3.org/2000/svg"
   xmlns="http://www.w3.org/2000/svg"
   xmlns:sodipodi="http://sodipodi.sourceforge.net/DTD/sodipodi-0.dtd"
   xmlns:inkscape="http://www.inkscape.org/namespaces/inkscape"
   width="620"
   height="620"
   viewBox="0 0 620.00001 620"
   id="svg2"
   version="1.1"
   inkscape:version="0.91 r13725"
   sodipodi:docname="logo2.svg">
  <defs
     id="defs4" />
  <sodipodi:namedview
     id="base"
     pagecolor="#ffffff"
     bordercolor="#666666"
     borderopacity="1.0"
     inkscape:pageopacity="0.0"
     inkscape:pageshadow="2"
     inkscape:zoom="0.7"
     inkscape:cx="422.13596"
     inkscape:cy="521.32124"
     inkscape:document-units="px"
     inkscape:current-layer="layer1"
     showgrid="false"
     inkscape:window-width="1920"
     inkscape:window-height="1145"
     inkscape:window-x="0"
     inkscape:window-y="25"
     inkscape:window-maximized="1"
     units="px"
     fit-margin-top="0"
     fit-margin-left="0"
     fit-margin-right="0"
     fit-margin-bottom="0" />
  <metadata
     id="metadata7">
    <rdf:RDF>
      <cc:Work
         rdf:about="">
        <dc:format>image/svg+xml</dc:format>
        <dc:type
           rdf:resource="http://purl.org/dc/dcmitype/StillImage" />
        <dc:title></dc:title>
      </cc:Work>
    </rdf:RDF>
  </metadata>
  <g
     inkscape:label="Layer 1"
     inkscape:groupmode="layer"
     id="layer1"
     transform="translate(-25.714325,-309.50507)">
    <circle
       id="path3336"
       cx="335.71432"
       cy="619.50507"
       r="310"
       inkscape:export-xdpi="90"
       inkscape:export-ydpi="90" />
    <path
       d="m 549.55073,501.40318 0,-20.715 c 0,-43.7875 -35.4975,-79.285 -79.285,-79.285 l -266.4303,0 c -43.7875,0 -79.28467,35.4975 -79.28467,79.285 l 0,20.715 49.99997,0 0,-50 137.5,0 0,299.99999 50,12.5 0,-187.49999 137.5,0 0,199.99999 -287.5,0 0,-199.99999 87.5,0 -12.5,-50 -162.49997,0 0,50 37.49997,0 0,199.99999 -37.49997,0 0,50 345.71497,0 c 43.7875,0 79.285,-35.4975 79.285,-79.28513 l 0,-141.42986 c 0,-43.78875 -35.4975,-79.285 -79.285,-79.285 l -108.215,0 0,-75 137.5,0 0,50 50,0"
       style="fill:#ffffff;fill-opacity:0.94117647;fill-rule:nonzero;stroke:none"
       id="path14"
       inkscape:connector-curvature="0"
       inkscape:export-xdpi="90"
       inkscape:export-ydpi="90" />
  </g>
</svg>
