<?xml version="1.0" encoding="UTF-8" standalone="no"?>
<svg
   xmlns:dc="http://purl.org/dc/elements/1.1/"
   xmlns:cc="http://creativecommons.org/ns#"
   xmlns:rdf="http://www.w3.org/1999/02/22-rdf-syntax-ns#"
   xmlns:svg="http://www.w3.org/2000/svg"
   xmlns="http://www.w3.org/2000/svg"
   viewBox="0 0 425 425"
   height="425"
   width="425"
   xml:space="preserve"
   version="1.1"
   id="svg2"><metadata
     id="metadata8"><rdf:RDF><cc:Work
         rdf:about=""><dc:format>image/svg+xml</dc:format><dc:type
           rdf:resource="http://purl.org/dc/dcmitype/StillImage" /><dc:title></dc:title></cc:Work></rdf:RDF></metadata><defs
     id="defs6" /><g
     transform="matrix(1.25,0,0,-1.25,0,425)"
     id="g10"><g
       transform="scale(0.1,0.1)"
       id="g12"><path
         id="path14"
         style="fill:#211d1d;fill-opacity:1;fill-rule:nonzero;stroke:none"
         d="m 3400,2600 0,165.72 c 0,350.3 -283.98,634.28 -634.28,634.28 l -2131.443,0 C 283.977,3400 0,3116.02 0,2765.72 L 0,2600 l 400,0 0,400 1100,0 0,-2400 400,-100 0,1500 1100,0 0,-1600 -2300,0 0,1600 700,0 -100,400 -1300,0 0,-400 300,0 L 300,400 0,400 0,0 2765.72,0 C 3116.02,0 3400,283.98 3400,634.281 l 0,1131.439 c 0,350.31 -283.98,634.28 -634.28,634.28 l -865.72,0 0,600 1100,0 0,-400 400,0" /></g></g></svg>