<?xml version="1.0" standalone="no"?>
<!DOCTYPE svg PUBLIC "-//W3C//DTD SVG 20010904//EN"
 "http://www.w3.org/TR/2001/REC-SVG-20010904/DTD/svg10.dtd">
<svg version="1.0" xmlns="http://www.w3.org/2000/svg"
 width="700.000000pt" height="700.000000pt" viewBox="0 0 700.000000 700.000000"
 preserveAspectRatio="xMidYMid meet">
<metadata>
Created by potrace 1.11, written by Peter Selinger 2001-2013
</metadata>
<g transform="translate(0.000000,700.000000) scale(0.100000,-0.100000)"
fill="#000000" stroke="none">
<path d="M3225 6994 c-246 -25 -498 -70 -680 -123 -1007 -289 -1826 -1002
-2249 -1956 -102 -228 -176 -461 -226 -705 -56 -278 -64 -367 -64 -710 0 -343
8 -432 64 -710 224 -1101 978 -2034 2015 -2494 301 -134 618 -223 975 -273
179 -25 701 -25 880 0 734 103 1343 382 1890 863 556 490 951 1173 1100 1904
56 278 64 367 64 710 0 343 -8 432 -64 710 -224 1101 -978 2034 -2015 2494
-300 134 -622 224 -970 272 -114 15 -617 28 -720 18z m2010 -1062 c320 -90
546 -312 641 -629 24 -78 27 -110 32 -275 l4 -188 -281 0 -281 0 0 280 0 280
-780 0 -780 0 0 -424 0 -425 678 -4 c659 -3 679 -4 762 -26 319 -82 569 -332
653 -651 l22 -85 0 -930 0 -930 -23 -83 c-95 -349 -376 -605 -724 -662 -41 -6
-748 -10 -2050 -10 l-1988 0 0 275 0 275 210 0 210 0 0 1135 0 1135 -210 0
-210 0 0 280 0 280 913 0 912 0 68 -272 c37 -150 67 -276 67 -280 0 -5 -220
-8 -490 -8 l-490 0 0 -1135 0 -1135 1625 0 1625 0 0 1135 0 1135 -780 0 -780
0 0 -1056 c0 -1001 -1 -1056 -17 -1052 -10 3 -134 33 -275 69 l-258 64 0 1692
0 1693 -780 0 -780 0 0 -280 0 -280 -281 0 -281 0 5 183 c5 197 19 276 74 400
122 280 395 487 694 526 35 5 784 8 1664 7 l1600 -1 80 -23z"/>
</g>
</svg>
