<?xml version="1.0" standalone="no"?>
<!DOCTYPE svg PUBLIC "-//W3C//DTD SVG 20010904//EN"
 "http://www.w3.org/TR/2001/REC-SVG-20010904/DTD/svg10.dtd">
<svg version="1.0" xmlns="http://www.w3.org/2000/svg"
 width="700.000000pt" height="700.000000pt" viewBox="0 0 700.000000 700.000000"
 preserveAspectRatio="xMidYMid meet">
<metadata>
Created by potrace 1.11, written by Peter Selinger 2001-2013
</metadata>
<g transform="translate(0.000000,700.000000) scale(0.100000,-0.100000)"
fill="#000000" stroke="none">
<path d="M1179 6996 c-2 -2 -24 -6 -49 -9 -121 -14 -286 -65 -405 -125 -361
-181 -630 -534 -700 -922 -4 -19 -9 -46 -11 -60 -3 -14 -8 -138 -11 -276 l-5
-251 411 -1 411 0 1 21 c1 12 2 198 3 412 l1 390 1133 0 1132 0 0 -2470 0
-2470 398 -99 c218 -55 403 -101 410 -104 9 -3 12 309 12 1540 l0 1545 1133
-1 1132 -1 0 -1645 0 -1645 -2367 0 -2367 -1 0 1646 0 1647 715 0 c393 0 716
2 719 5 3 2 -13 79 -36 169 -22 90 -42 171 -44 179 -2 8 -11 44 -20 80 -9 36
-18 72 -20 80 -2 8 -20 81 -41 163 l-37 147 -1338 0 -1339 0 0 -410 c0 -383 1
-410 18 -411 9 0 147 -1 307 -2 l290 -2 0 -1645 0 -1645 -295 -1 c-162 -1
-301 -2 -307 -3 -10 -1 -13 -90 -13 -411 l0 -410 2903 0 c1596 1 2922 5 2947
10 25 4 63 11 85 14 287 45 602 238 793 486 133 174 228 396 259 610 11 73 10
2629 0 2700 -28 189 -100 375 -206 535 -58 88 -69 102 -161 196 -196 200 -452
331 -730 374 -79 13 -88 13 -1043 14 l-937 1 2 618 3 617 1130 0 1130 0 1
-400 c1 -220 2 -405 3 -412 1 -8 109 -11 412 -11 l410 0 -2 232 c-2 219 -15
354 -41 436 -71 230 -130 344 -258 503 -193 240 -466 397 -805 463 -39 8
-4708 18 -4716 10z"/>
</g>
</svg>
